<svg id="Layer_1" data-name="Layer 1" xmlns="http://www.w3.org/2000/svg" viewBox="0 0 150 150"><defs><style>.cls-1{fill:#f0c4d9;}</style></defs><g id="Ellipse_1" data-name="Ellipse 1"><path class="cls-1" d="M127.1,64.29c-.18-.87-.38-1.72-.59-2.56v0c-.22-.85-.46-1.68-.72-2.51L125.4,58A53.5,53.5,0,0,0,92,24.61c-1.23-.4-2.48-.79-3.76-1.11-.85-.23-1.69-.41-2.56-.6a53.26,53.26,0,0,0-21.44,0c-.86.19-1.71.37-2.56.6-1.27.32-2.53.71-3.76,1.11A53.49,53.49,0,0,0,24.61,58c-.14.4-.27.82-.41,1.23-.25.83-.5,1.66-.71,2.51v0c-.22.84-.42,1.69-.6,2.56A54,54,0,0,0,21.81,75H35.56a39.44,39.44,0,0,1,78.87,0h13.75A53.3,53.3,0,0,0,127.1,64.29Z"/></g><path class="cls-1" d="M75,128.32A53.32,53.32,0,1,1,128.33,75,53.39,53.39,0,0,1,75,128.32ZM75,22a53,53,0,1,0,53,53A53.1,53.1,0,0,0,75,22Zm0,92.61A39.57,39.57,0,1,1,114.57,75,39.61,39.61,0,0,1,75,114.57Zm0-78.86A39.29,39.29,0,1,0,114.29,75,39.34,39.34,0,0,0,75,35.71Z"/></svg>