<svg id="Layer_1" data-name="Layer 1" xmlns="http://www.w3.org/2000/svg" viewBox="0 0 150 150"><defs><style>.cls-1{fill:#f0c4d9;}</style></defs><g id="Ellipse_1" data-name="Ellipse 1"><path class="cls-1" d="M127.1,64.29c-.18-.87-.37-1.73-.59-2.57h0c-.22-.86-.46-1.68-.71-2.51-.13-.41-.28-.83-.41-1.24A53.49,53.49,0,0,0,92,24.61c-1.24-.41-2.49-.79-3.76-1.12-.84-.22-1.7-.41-2.57-.59a53.16,53.16,0,0,0-21.42,0c-.87.18-1.73.37-2.57.59-1.27.33-2.54.71-3.76,1.12A53.49,53.49,0,0,0,24.61,58c-.13.41-.28.83-.41,1.24-.25.83-.49,1.65-.71,2.51h0c-.22.84-.41,1.7-.59,2.57a53.16,53.16,0,0,0,0,21.42c.18.87.37,1.73.59,2.57h0c.22.86.46,1.68.71,2.51v0A53.51,53.51,0,0,0,58,125.39c1.22.41,2.49.79,3.76,1.12.84.22,1.7.41,2.57.59a53.16,53.16,0,0,0,21.42,0c.87-.18,1.73-.37,2.57-.59,1.27-.33,2.52-.71,3.76-1.12l.1,0-4.91-12.86h0A39.43,39.43,0,1,1,114.43,75h13.76A53.15,53.15,0,0,0,127.1,64.29Z"/></g><path class="cls-1" d="M75,128.32A53.32,53.32,0,1,1,128.33,75,53.39,53.39,0,0,1,75,128.32ZM75,22a53,53,0,1,0,53,53A53.1,53.1,0,0,0,75,22Zm0,92.61A39.57,39.57,0,1,1,114.57,75,39.61,39.61,0,0,1,75,114.57Zm0-78.86A39.29,39.29,0,1,0,114.29,75,39.34,39.34,0,0,0,75,35.71Z"/></svg>