<svg id="Layer_1" data-name="Layer 1" xmlns="http://www.w3.org/2000/svg" viewBox="0 0 150 150"><defs><style>.cls-1{fill:none;stroke:#000;stroke-miterlimit:10;stroke-width:0.28px;}</style></defs><g id="Ellipse_1" data-name="Ellipse 1"><path d="M127.1,64.29c-.18-.87-.38-1.72-.59-2.56v0c-.22-.85-.46-1.68-.72-2.51L125.4,58A53.5,53.5,0,0,0,92,24.61c-1.23-.4-2.48-.79-3.76-1.11-.85-.23-1.69-.41-2.56-.6A53.32,53.32,0,0,0,75,21.81a52.6,52.6,0,0,0-8.56.7l2.21,13.58A39.46,39.46,0,0,1,114.43,75h13.75A53.3,53.3,0,0,0,127.1,64.29Z"/></g><path class="cls-1" d="M128.18,75A53.18,53.18,0,1,1,75,21.82,53.18,53.18,0,0,1,128.18,75ZM75,35.57A39.43,39.43,0,1,0,114.43,75,39.43,39.43,0,0,0,75,35.57Z"/></svg>