<svg id="Layer_1" data-name="Layer 1" xmlns="http://www.w3.org/2000/svg" viewBox="0 0 150 150"><defs><style>.cls-1{fill:none;stroke:#000;stroke-miterlimit:10;stroke-width:0.28px;}</style></defs><g id="Ellipse_1" data-name="Ellipse 1"><path d="M127.11,64.29c-.19-.87-.38-1.73-.59-2.57h0c-.23-.86-.46-1.68-.73-2.51L125.4,58A53.49,53.49,0,0,0,92,24.61c-1.23-.41-2.48-.79-3.76-1.12-.85-.22-1.69-.41-2.56-.59a53.26,53.26,0,0,0-21.44,0c-.86.18-1.71.37-2.55.59-1.28.33-2.54.71-3.76,1.12A53.51,53.51,0,0,0,24.61,58c-.14.41-.27.83-.4,1.24-.25.83-.5,1.65-.71,2.51h0c-.23.84-.42,1.7-.61,2.57a53.64,53.64,0,0,0,0,21.42c.19.87.38,1.73.61,2.57h0c.21.86.46,1.68.71,2.51v0A53.49,53.49,0,0,0,58,125.39c1.22.41,2.48.79,3.76,1.12.84.22,1.69.41,2.55.59A53.42,53.42,0,0,0,75,128.19V114.43A39.43,39.43,0,1,1,114.43,75h13.76A53.15,53.15,0,0,0,127.11,64.29Z"/></g><path class="cls-1" d="M128.18,75A53.18,53.18,0,1,1,75,21.82,53.18,53.18,0,0,1,128.18,75ZM75,35.57A39.43,39.43,0,1,0,114.43,75,39.43,39.43,0,0,0,75,35.57Z"/></svg>