<svg id="Layer_1" data-name="Layer 1" xmlns="http://www.w3.org/2000/svg" viewBox="0 0 150 150"><defs><style>.cls-1{fill:none;stroke:#000;stroke-miterlimit:10;stroke-width:0.28px;}</style></defs><g id="Ellipse_1" data-name="Ellipse 1"><path d="M74.68,114.43a39.43,39.43,0,1,1,39.75-39.11l13.76.11a53.39,53.39,0,0,0-1-10.72c-.18-.87-.36-1.72-.57-2.57v0c-.22-.84-.45-1.68-.7-2.51-.12-.41-.26-.82-.39-1.24A53.5,53.5,0,0,0,92.45,24.75c-1.23-.42-2.48-.81-3.75-1.15-.84-.23-1.69-.43-2.56-.62a53.45,53.45,0,0,0-21.43-.17c-.87.18-1.72.36-2.57.57-1.27.32-2.53.69-3.77,1.09A53.5,53.5,0,0,0,24.75,57.55c-.14.41-.28.82-.41,1.24-.27.82-.51,1.65-.74,2.49v0c-.23.84-.43,1.69-.62,2.56a53.45,53.45,0,0,0-.17,21.43c.18.87.36,1.72.57,2.57v0c.22.84.45,1.68.7,2.51,0,0,0,0,0,0a53.5,53.5,0,0,0,33.47,34.85c1.23.42,2.48.81,3.75,1.15.84.23,1.69.43,2.56.62a53.45,53.45,0,0,0,21.43.17c.87-.18,1.72-.36,2.57-.57,1.27-.32,2.53-.69,3.77-1.09A53.53,53.53,0,0,0,119.56,104l-12-6.84A39.45,39.45,0,0,1,74.68,114.43Z"/></g><path class="cls-1" d="M128.18,75A53.18,53.18,0,1,1,75,21.82,53.18,53.18,0,0,1,128.18,75ZM75,35.57A39.43,39.43,0,1,0,114.43,75,39.43,39.43,0,0,0,75,35.57Z"/></svg>